<svg width="50" height="50" viewBox="0 0 50 50" fill="none" xmlns="http://www.w3.org/2000/svg">
<g clip-path="url(#clip0)">
<rect width="50" height="50" fill="black"/>
<path d="M16.1497 29.9363C15.7802 29.5307 15.5625 29.0136 15.5326 28.4702V21.6935C15.5625 21.15 15.7802 20.6328 16.1497 20.2273L16.6377 19.7478C16.8014 19.5867 16.8933 19.3684 16.8933 19.1407C16.8933 18.9131 16.8014 18.6947 16.6377 18.5336L11.461 13.4464C11.2968 13.2858 11.0746 13.1956 10.8429 13.1956C10.6112 13.1956 10.389 13.2858 10.2248 13.4464L8.25429 15.3826C8.09139 15.5441 8 15.7623 8 15.9897C8 16.2171 8.09139 16.4353 8.25429 16.5968L11.949 20.2272C12.3192 20.6323 12.5372 21.1497 12.5668 21.6934V28.47C12.5373 29.0134 12.3192 29.5304 11.949 29.9352L8.25429 33.5669C8.09139 33.7285 8 33.9467 8 34.1739C8 34.4014 8.09139 34.6196 8.25429 34.7811L10.2248 36.7172C10.389 36.8778 10.6112 36.9681 10.8429 36.9681C11.0746 36.9681 11.2968 36.8778 11.461 36.7172L16.6377 31.6297C16.8014 31.4684 16.8933 31.2502 16.8933 31.0227C16.8933 30.7949 16.8014 30.5767 16.6377 30.4157L16.1497 29.9363Z" fill="#E94A4A"/>
<path d="M30.3763 34.2082C29.9637 34.5711 29.4376 34.7853 28.8845 34.8153H21.9897C21.4362 34.7853 20.9096 34.5713 20.4965 34.2082L20.0096 33.7274C19.8449 33.5673 19.6226 33.4775 19.391 33.4775C19.1593 33.4775 18.937 33.5673 18.7723 33.7274L13.5962 38.8146C13.4328 38.9762 13.3411 39.1947 13.3411 39.4224C13.3411 39.6502 13.4328 39.8687 13.5962 40.0301L15.5667 41.9664C15.7313 42.1265 15.9534 42.2162 16.185 42.2162C16.4165 42.2162 16.6387 42.1265 16.8032 41.9664L20.4972 38.3341C20.9102 37.9713 21.4366 37.7573 21.9898 37.7273H28.8866C29.4397 37.7571 29.9659 37.9711 30.3785 38.3341L34.074 41.9664C34.2385 42.1265 34.4605 42.2162 34.692 42.2162C34.9234 42.2162 35.1455 42.1265 35.3099 41.9664L37.2804 40.0301C37.4439 39.8687 37.5356 39.6502 37.5356 39.4224C37.5356 39.1947 37.4439 38.9762 37.2804 38.8146L32.1005 33.727C31.9362 33.5669 31.7142 33.4772 31.4829 33.4772C31.2515 33.4772 31.0293 33.5669 30.865 33.727L30.3763 34.2082Z" fill="#F2F47A"/>
<path d="M34.8481 20.2796C35.2185 20.6855 35.4369 21.2035 35.467 21.7479V28.522C35.4367 29.066 35.2183 29.5836 34.8481 29.9891L34.3599 30.4697C34.1968 30.6311 34.1052 30.8493 34.1052 31.0769C34.1052 31.3043 34.1968 31.5225 34.3599 31.6839L39.5381 36.7705C39.7023 36.9311 39.9246 37.0212 40.1561 37.0212C40.3878 37.0212 40.61 36.9311 40.7741 36.7705L42.7446 34.8333C42.9081 34.672 43 34.4536 43 34.2261C43 33.9985 42.9081 33.7801 42.7446 33.6189L39.0508 29.9884C38.6804 29.583 38.4618 29.0654 38.4316 28.5213L38.4326 21.7472C38.4623 21.2029 38.6804 20.6849 39.0508 20.279L42.7446 16.6486C42.9081 16.4877 43 16.2695 43 16.0421C43 15.8148 42.9081 15.5966 42.7446 15.4357L40.7741 13.4984C40.693 13.4186 40.5967 13.3554 40.4907 13.3122C40.3845 13.2691 40.271 13.2468 40.1561 13.2468C40.0414 13.2468 39.9277 13.2691 39.8217 13.3122C39.7156 13.3554 39.6193 13.4186 39.5381 13.4984L34.3599 18.5848C34.1968 18.7462 34.1052 18.9644 34.1052 19.1919C34.1052 19.4194 34.1968 19.6377 34.3599 19.7991L34.8481 20.2796Z" fill="#6BF893"/>
<path d="M20.6213 16.0079C21.0338 15.6444 21.5602 15.4302 22.1135 15.4007H29.0089C29.562 15.4307 30.0881 15.6448 30.5009 16.0079L30.9901 16.4884C31.0711 16.5681 31.1674 16.6313 31.2734 16.6745C31.3793 16.7176 31.4929 16.7399 31.6076 16.7399C31.7223 16.7399 31.836 16.7176 31.9418 16.6745C32.0478 16.6313 32.1441 16.5681 32.2253 16.4884L37.4026 11.4008C37.566 11.2393 37.6577 11.0208 37.6577 10.7931C37.6577 10.5654 37.566 10.3469 37.4026 10.1854L35.4321 8.25145C35.2681 8.09044 35.0458 8 34.814 8C34.5821 8 34.3598 8.09044 34.1958 8.25145L30.5011 11.8818C30.0883 12.2449 29.5621 12.459 29.009 12.489H22.1135C21.5602 12.4595 21.0338 12.2453 20.6213 11.8818L16.9266 8.25145C16.762 8.09142 16.5399 8.00165 16.3084 8.00165C16.0769 8.00165 15.8548 8.09142 15.6902 8.25145L13.7197 10.1876C13.5563 10.3491 13.4646 10.5676 13.4646 10.7953C13.4646 11.023 13.5563 11.2414 13.7197 11.4029L18.8959 16.4882C19.0599 16.6492 19.2823 16.7396 19.5141 16.7396C19.7459 16.7396 19.9683 16.6492 20.1323 16.4882L20.6213 16.0079Z" fill="#9DE8FF"/>
</g>
<defs>
<clipPath id="clip0">
<rect width="50" height="50" fill="white"/>
</clipPath>
</defs>
</svg>
